<svg width="44" height="43" fill="none" xmlns="http://www.w3.org/2000/svg"><path d="M6.893 5.904c8.385-7.84 21.63-8.015 30.156.334 1.257 1.24-.563 3.261-1.97 1.89C27.628.886 16.114 1.07 8.81 7.847c-1.433 1.327-3.208-.73-1.916-1.943zm8.692 36.792c1.697.5 2.576-2.075.695-2.637C6.418 37.079.828 26.902 3.316 17.119c.44-1.722-2.189-2.47-2.655-.624-2.82 11.198 3.613 22.835 14.924 26.2zm13.017-.176c10.714-3.533 16.954-14.67 14.45-25.577-.396-1.731-3.068-1.212-2.637.695 2.127 9.466-3.26 19.151-12.586 22.272-1.864.615-.914 3.164.773 2.61zm-5.528-6.944l.017-6.31c0-.72-.58-1.3-1.3-1.3-.721 0-1.301.588-1.301 1.3l-.018 6.31c0 .721.58 1.301 1.301 1.301.72 0 1.3-.58 1.3-1.3zm6.24-23.642c.185 7.989.413 11.593-7.515 11.645-8.13-.061-7.637-3.893-7.514-11.645 0-1.916-2.857-1.723-2.857 0v6.293c0 6.09 5.335 7.989 10.371 7.919 5.037.07 10.372-1.828 10.372-7.92v-6.292c0-1.723-2.857-1.916-2.857 0z" fill="#fff"/></svg>